<svg width="24" height="28" viewBox="0 0 24 28" fill="none" xmlns="http://www.w3.org/2000/svg">
<path d="M23.441 25.9101L21.5232 8.41012C21.4184 7.4527 20.6129 6.73077 19.6498 6.73077H18.1921V6.19232C18.1921 2.77785 15.4142 0 11.9998 0C8.58539 0 5.80748 2.77785 5.80748 6.19232V6.73077H4.34973C3.38663 6.73077 2.58119 7.45276 2.4763 8.41012L0.558518 25.9101C0.50033 26.4418 0.671666 26.9752 1.02861 27.3734C1.38556 27.7716 1.8971 28 2.43195 28H21.5676C21.6649 28 21.7614 27.9922 21.8563 27.9775C21.8592 27.977 21.8623 27.9768 21.8652 27.9763C21.8814 27.9737 21.8975 27.9702 21.9135 27.9672C21.9298 27.9641 21.9462 27.9616 21.9623 27.9581C21.9735 27.9556 21.9846 27.9526 21.9957 27.95C22.0166 27.945 22.0375 27.9404 22.0581 27.9348C22.2693 27.8778 22.469 27.7839 22.6483 27.6584C22.6576 27.6519 22.6671 27.6458 22.6762 27.6392C22.7828 27.5617 22.8816 27.4728 22.9709 27.3732C23.328 26.975 23.4993 26.4417 23.441 25.9101ZM7.42284 6.19232C7.42284 3.6686 9.47603 1.61541 11.9997 1.61541C14.5235 1.61541 16.5767 3.6686 16.5767 6.19232V6.73077H7.42284V6.19232ZM4.08214 8.58605C4.09713 8.44927 4.21219 8.34619 4.34973 8.34619H5.80748V10.7693C5.80748 11.2154 6.16913 11.577 6.61516 11.577C7.06119 11.577 7.42284 11.2153 7.42284 10.7693V8.34619H16.5767V10.7693C16.5767 11.2154 16.9384 11.577 17.3844 11.577C17.8304 11.577 18.1921 11.2153 18.1921 10.7693V8.34619H19.6498C19.7874 8.34619 19.9024 8.44938 19.9174 8.5861L21.3663 21.8077H2.6332L4.08214 8.58605ZM21.7681 26.2951C21.7382 26.3285 21.6723 26.3846 21.5676 26.3846H2.43195C2.32739 26.3846 2.26149 26.3285 2.23146 26.2951C2.20149 26.2616 2.15288 26.19 2.16431 26.086L2.45623 23.4231H21.5434L21.8353 26.086C21.8467 26.19 21.7981 26.2617 21.7681 26.2951Z" fill="#242424"/>
</svg>
