<svg width="18" height="18" viewBox="0 0 18 18" fill="none" xmlns="http://www.w3.org/2000/svg">
<path d="M12.3165 17.4745C11.7866 17.4703 11.262 17.3724 10.7497 17.1816C8.49301 16.3412 6.4029 14.9852 4.70531 13.2601C3.00771 11.5351 1.68547 9.42342 0.881483 7.15346C0.623124 6.42397 0.551188 5.67251 0.667752 4.91987C0.776944 4.21488 1.05585 3.53186 1.47436 2.94465C1.89472 2.35485 2.45274 1.86597 3.08807 1.53087C3.76558 1.17354 4.50337 0.995494 5.28101 1.00174C5.52287 1.00369 5.73054 1.17435 5.77933 1.41123L6.55428 5.17506C6.58937 5.34549 6.53566 5.5221 6.41165 5.64416L5.02482 7.00885C6.30193 9.59962 8.39094 11.7225 10.9609 13.0411L12.3477 11.6763C12.4717 11.5543 12.6492 11.5035 12.819 11.5413L16.5699 12.3766C16.806 12.4292 16.9733 12.6396 16.9713 12.8814C16.9651 13.6591 16.7752 14.3939 16.407 15.0656C16.0617 15.6955 15.5639 16.2456 14.9675 16.6564C14.3736 17.0654 13.6862 17.3333 12.9795 17.4312C12.7581 17.4619 12.5368 17.4763 12.3165 17.4745ZM4.86274 2.0468C3.83608 2.15179 2.92133 2.68212 2.30982 3.54014C1.62216 4.50496 1.45404 5.69711 1.84855 6.81096C3.39426 11.175 6.76912 14.6045 11.1077 16.2202C12.2151 16.6325 13.4098 16.4836 14.3856 15.8115C15.2533 15.2139 15.7983 14.3078 15.9197 13.2829L12.8684 12.6034L11.4201 14.0286C11.2659 14.1803 11.0333 14.219 10.8384 14.1255C7.79819 12.6673 5.34778 10.1772 3.9386 7.11391C3.84825 6.91751 3.89071 6.68553 4.04483 6.5339L5.49316 5.10866L4.86274 2.0468Z" fill="#844476"/>
</svg>
