<svg width="74" height="11" viewBox="0 0 74 11" fill="none" xmlns="http://www.w3.org/2000/svg">
<g clip-path="url(#clip0_2301_2)">
<path d="M10.9713 4.21955C10.8993 3.99681 10.7018 3.83861 10.468 3.81754L7.29313 3.52926L6.03769 0.590776C5.94512 0.375423 5.7343 0.236023 5.50006 0.236023C5.26582 0.236023 5.055 0.375423 4.96243 0.59128L3.70699 3.52926L0.531583 3.81754C0.29827 3.83911 0.101213 3.99681 0.0287851 4.21955C-0.0436427 4.44228 0.023246 4.68659 0.199741 4.8406L2.59959 6.94528L1.89193 10.0625C1.84015 10.2917 1.92911 10.5286 2.11929 10.6661C2.22151 10.74 2.3411 10.7776 2.4617 10.7776C2.56569 10.7776 2.66883 10.7495 2.7614 10.6941L5.50006 9.05735L8.23771 10.6941C8.43804 10.8147 8.69057 10.8037 8.88033 10.6661C9.07059 10.5282 9.15947 10.2912 9.10769 10.0625L8.40002 6.94528L10.7999 4.84101C10.9764 4.68659 11.0438 4.4427 10.9713 4.21955Z" fill="#844476"/>
</g>
<g clip-path="url(#clip1_2301_2)">
<path d="M25.9713 4.21955C25.8993 3.99681 25.7018 3.83861 25.468 3.81754L22.2931 3.52926L21.0377 0.590776C20.9451 0.375423 20.7343 0.236023 20.5001 0.236023C20.2658 0.236023 20.055 0.375423 19.9624 0.59128L18.707 3.52926L15.5316 3.81754C15.2983 3.83911 15.1012 3.99681 15.0288 4.21955C14.9564 4.44228 15.0232 4.68659 15.1997 4.8406L17.5996 6.94528L16.8919 10.0625C16.8402 10.2917 16.9291 10.5286 17.1193 10.6661C17.2215 10.74 17.3411 10.7776 17.4617 10.7776C17.5657 10.7776 17.6688 10.7495 17.7614 10.6941L20.5001 9.05735L23.2377 10.6941C23.438 10.8147 23.6906 10.8037 23.8803 10.6661C24.0706 10.5282 24.1595 10.2912 24.1077 10.0625L23.4 6.94528L25.7999 4.84101C25.9764 4.68659 26.0438 4.4427 25.9713 4.21955Z" fill="#844476"/>
</g>
<g clip-path="url(#clip2_2301_2)">
<path d="M41.9713 4.21955C41.8993 3.99681 41.7018 3.83861 41.468 3.81754L38.2931 3.52926L37.0377 0.590776C36.9451 0.375423 36.7343 0.236023 36.5001 0.236023C36.2658 0.236023 36.055 0.375423 35.9624 0.59128L34.707 3.52926L31.5316 3.81754C31.2983 3.83911 31.1012 3.99681 31.0288 4.21955C30.9564 4.44228 31.0232 4.68659 31.1997 4.8406L33.5996 6.94528L32.8919 10.0625C32.8402 10.2917 32.9291 10.5286 33.1193 10.6661C33.2215 10.74 33.3411 10.7776 33.4617 10.7776C33.5657 10.7776 33.6688 10.7495 33.7614 10.6941L36.5001 9.05735L39.2377 10.6941C39.438 10.8147 39.6906 10.8037 39.8803 10.6661C40.0706 10.5282 40.1595 10.2912 40.1077 10.0625L39.4 6.94528L41.7999 4.84101C41.9764 4.68659 42.0438 4.4427 41.9713 4.21955Z" fill="#844476"/>
</g>
<g clip-path="url(#clip3_2301_2)">
<path d="M57.9713 4.21955C57.8993 3.99681 57.7018 3.83861 57.468 3.81754L54.2931 3.52926L53.0377 0.590776C52.9451 0.375423 52.7343 0.236023 52.5001 0.236023C52.2658 0.236023 52.055 0.375423 51.9624 0.59128L50.707 3.52926L47.5316 3.81754C47.2983 3.83911 47.1012 3.99681 47.0288 4.21955C46.9564 4.44228 47.0232 4.68659 47.1997 4.8406L49.5996 6.94528L48.8919 10.0625C48.8402 10.2917 48.9291 10.5286 49.1193 10.6661C49.2215 10.74 49.3411 10.7776 49.4617 10.7776C49.5657 10.7776 49.6688 10.7495 49.7614 10.6941L52.5001 9.05735L55.2377 10.6941C55.438 10.8147 55.6906 10.8037 55.8803 10.6661C56.0706 10.5282 56.1595 10.2912 56.1077 10.0625L55.4 6.94528L57.7999 4.84101C57.9764 4.68659 58.0438 4.4427 57.9713 4.21955Z" fill="#844476"/>
</g>
<g clip-path="url(#clip4_2301_2)">
<path d="M65.462 10.7776C65.3415 10.7776 65.2218 10.74 65.1197 10.6661C64.9294 10.5282 64.8406 10.2912 64.8923 10.0625L65.6 6.94528L63.2001 4.84059C63.0237 4.68659 62.9563 4.4427 63.0287 4.21955C63.1011 3.99681 63.2982 3.83911 63.5315 3.81754L66.7069 3.52926L67.9623 0.59128C68.0549 0.375423 68.2657 0.236023 68.5 0.236023C68.7342 0.236023 68.945 0.375423 69.0376 0.590776L70.293 3.52926L73.4679 3.81754C73.7017 3.83861 73.8988 3.99681 73.9712 4.21955C74.0437 4.44228 73.9767 4.68659 73.8003 4.84059L71.4003 6.94486L72.108 10.062C72.1599 10.2912 72.0709 10.5282 71.8807 10.6657C71.691 10.8032 71.4379 10.8137 71.2381 10.6936L68.5 9.05735L65.7618 10.6946C65.6692 10.7495 65.5661 10.7776 65.462 10.7776ZM68.5 8.35246C68.604 8.35246 68.7071 8.3804 68.7997 8.43538L71.3839 9.98095L70.716 7.03877C70.6683 6.82938 70.7394 6.61075 70.9012 6.46908L73.1673 4.48173L70.1692 4.20948C69.9534 4.18975 69.7677 4.05405 69.6834 3.85514L68.5 1.08258L67.3151 3.85556C67.2317 4.05312 67.046 4.18883 66.8307 4.20855L63.8322 4.48081L66.0982 6.46816C66.2605 6.61025 66.3315 6.82845 66.2834 7.03835L65.616 9.98044L68.2002 8.43538C68.2927 8.3804 68.3959 8.35246 68.5 8.35246ZM66.6826 3.58608C66.6826 3.58608 66.6826 3.58658 66.6821 3.587L66.6826 3.58608ZM70.3164 3.58473L70.3169 3.58566C70.3169 3.58515 70.3169 3.58515 70.3164 3.58473Z" fill="#844476"/>
</g>
<defs>
<clipPath id="clip0_2301_2">
<rect width="11" height="11" fill="white"/>
</clipPath>
<clipPath id="clip1_2301_2">
<rect width="11" height="11" fill="white" transform="translate(15)"/>
</clipPath>
<clipPath id="clip2_2301_2">
<rect width="11" height="11" fill="white" transform="translate(31)"/>
</clipPath>
<clipPath id="clip3_2301_2">
<rect width="11" height="11" fill="white" transform="translate(47)"/>
</clipPath>
<clipPath id="clip4_2301_2">
<rect width="11" height="11" fill="white" transform="translate(63)"/>
</clipPath>
</defs>
</svg>
