<svg width="24" height="28" fill="none" xmlns="http://www.w3.org/2000/svg"><path d="M23.441 25.91l-1.918-17.5a1.882 1.882 0 00-1.873-1.68h-1.458v-.538A6.2 6.2 0 0012 0a6.2 6.2 0 00-6.193 6.192v.539H4.35c-.963 0-1.769.722-1.874 1.68L.56 25.91A1.887 1.887 0 002.432 28h19.136c.097 0 .193-.008.288-.023h.01l.047-.01.05-.009.033-.008.062-.015c.211-.057.411-.151.59-.277a1.882 1.882 0 00.793-1.748zM7.423 6.192A4.582 4.582 0 0112 1.615a4.582 4.582 0 014.577 4.577v.539H7.423v-.539zm-3.34 2.394a.269.269 0 01.267-.24h1.457v2.423a.808.808 0 001.616 0V8.346h9.154v2.423a.808.808 0 001.615 0V8.346h1.458c.137 0 .252.103.267.24l1.45 13.222H2.632l1.45-13.222zm17.685 17.71a.267.267 0 01-.2.089H2.432a.267.267 0 01-.2-.09.267.267 0 01-.068-.209l.292-2.663h19.087l.292 2.663a.267.267 0 01-.067.21z" fill="#242424"/></svg>