<svg width="18" height="18" fill="none" xmlns="http://www.w3.org/2000/svg"><path d="M12.316 17.474a4.572 4.572 0 01-1.566-.292 16.732 16.732 0 01-6.045-3.922A16.73 16.73 0 01.881 7.153 4.54 4.54 0 01.668 4.92a4.648 4.648 0 012.42-3.39 4.571 4.571 0 012.193-.528c.242.002.45.172.498.41l.775 3.763a.513.513 0 01-.142.47L5.025 7.008a13.503 13.503 0 005.936 6.032l1.387-1.365a.513.513 0 01.471-.135l3.75.836a.513.513 0 01.402.504 4.57 4.57 0 01-.564 2.185 4.667 4.667 0 01-3.428 2.365 4.6 4.6 0 01-.662.043zM4.863 2.047A3.553 3.553 0 002.31 3.54a3.534 3.534 0 00-.461 3.271 15.56 15.56 0 009.259 9.41 3.535 3.535 0 003.278-.41 3.553 3.553 0 001.534-2.528l-3.052-.68-1.448 1.426a.513.513 0 01-.582.097 14.525 14.525 0 01-6.9-7.012.513.513 0 01.107-.58l1.448-1.425-.63-3.062z" fill="#844476"/></svg>