<svg width="74" height="11" fill="none" xmlns="http://www.w3.org/2000/svg"><g clip-path="url(#clip0_2301_2)"><path d="M10.971 4.22a.583.583 0 00-.503-.402l-3.175-.289L6.038.591a.585.585 0 00-1.076 0L3.707 3.53l-3.175.289A.585.585 0 00.2 4.84l2.4 2.104-.708 3.117a.584.584 0 00.87.632L5.5 9.057l2.738 1.637a.585.585 0 00.87-.632L8.4 6.946l2.4-2.104a.585.585 0 00.171-.621z" fill="#844476"/></g><g clip-path="url(#clip1_2301_2)"><path d="M25.971 4.22a.583.583 0 00-.503-.402l-3.175-.289L21.038.591a.585.585 0 00-1.076 0L18.707 3.53l-3.175.289A.585.585 0 0015.2 4.84l2.4 2.104-.708 3.117a.585.585 0 00.87.632L20.5 9.057l2.738 1.637a.585.585 0 00.87-.632L23.4 6.946l2.4-2.104a.585.585 0 00.171-.621z" fill="#844476"/></g><g clip-path="url(#clip2_2301_2)"><path d="M41.971 4.22a.583.583 0 00-.503-.402l-3.175-.289L37.038.591a.585.585 0 00-1.076 0L34.707 3.53l-3.175.289A.585.585 0 0031.2 4.84l2.4 2.104-.708 3.117a.585.585 0 00.87.632L36.5 9.057l2.738 1.637a.585.585 0 00.87-.632L39.4 6.946l2.4-2.104a.585.585 0 00.171-.621z" fill="#844476"/></g><g clip-path="url(#clip3_2301_2)"><path d="M57.971 4.22a.583.583 0 00-.503-.402l-3.175-.289L53.038.591a.585.585 0 00-1.076 0L50.707 3.53l-3.175.289A.585.585 0 0047.2 4.84l2.4 2.104-.708 3.117a.585.585 0 00.87.632L52.5 9.057l2.738 1.637a.585.585 0 00.87-.632L55.4 6.946l2.4-2.104a.585.585 0 00.171-.621z" fill="#844476"/></g><g clip-path="url(#clip4_2301_2)"><path d="M65.462 10.778a.585.585 0 01-.57-.715l.708-3.118-2.4-2.104a.584.584 0 01.331-1.023l3.176-.289L67.962.591a.585.585 0 011.076 0l1.255 2.938 3.175.289A.584.584 0 0173.8 4.84l-2.4 2.104.708 3.117a.584.584 0 01-.87.632L68.5 9.057l-2.738 1.638a.587.587 0 01-.3.083zM68.5 8.352c.104 0 .207.028.3.083l2.584 1.546-.668-2.942a.585.585 0 01.185-.57l2.266-1.987-2.998-.273a.584.584 0 01-.486-.354L68.5 1.083l-1.185 2.773a.582.582 0 01-.484.353l-2.999.272 2.266 1.987c.162.142.234.36.185.57l-.667 2.942L68.2 8.435a.586.586 0 01.3-.083zm-1.817-4.766v.001zm3.633-.001z" fill="#844476"/></g><defs><clipPath id="clip0_2301_2"><path fill="#fff" d="M0 0h11v11H0z"/></clipPath><clipPath id="clip1_2301_2"><path fill="#fff" transform="translate(15)" d="M0 0h11v11H0z"/></clipPath><clipPath id="clip2_2301_2"><path fill="#fff" transform="translate(31)" d="M0 0h11v11H0z"/></clipPath><clipPath id="clip3_2301_2"><path fill="#fff" transform="translate(47)" d="M0 0h11v11H0z"/></clipPath><clipPath id="clip4_2301_2"><path fill="#fff" transform="translate(63)" d="M0 0h11v11H0z"/></clipPath></defs></svg>