<svg width="13" height="15" fill="none" xmlns="http://www.w3.org/2000/svg"><path d="M6.5 0A5.631 5.631 0 00.875 5.625c0 4.15 5.19 9.082 5.41 9.29a.313.313 0 00.43 0c.22-.208 5.41-5.14 5.41-9.29A5.631 5.631 0 006.5 0zm0 14.25c-.982-.98-5-5.202-5-8.625 0-2.757 2.243-5 5-5s5 2.243 5 5c0 3.423-4.018 7.645-5 8.625z" fill="#fff"/><path d="M6.5 2.5a3.129 3.129 0 00-3.125 3.125A3.129 3.129 0 006.5 8.75a3.129 3.129 0 003.125-3.125A3.129 3.129 0 006.5 2.5zm0 5.625a2.503 2.503 0 01-2.5-2.5c0-1.378 1.121-2.5 2.5-2.5S9 4.247 9 5.625s-1.121 2.5-2.5 2.5z" fill="#fff"/></svg>