<svg width="13" height="15" viewBox="0 0 13 15" fill="none" xmlns="http://www.w3.org/2000/svg">
<path d="M6.5 0C3.39819 0 0.875 2.52349 0.875 5.625C0.875 9.77479 6.06482 14.707 6.28578 14.9152C6.34619 14.9716 6.4231 15 6.5 15C6.5769 15 6.65381 14.9716 6.71425 14.9152C6.93518 14.707 12.125 9.77479 12.125 5.625C12.125 2.52349 9.60181 0 6.5 0ZM6.5 14.2502C5.51794 13.2697 1.49999 9.04784 1.49999 5.625C1.49999 2.86805 3.74305 0.62499 6.5 0.62499C9.25695 0.62499 11.5 2.86805 11.5 5.625C11.5 9.04784 7.48206 13.2697 6.5 14.2502Z" fill="white"/>
<path d="M6.50001 2.5C4.77697 2.5 3.375 3.90197 3.375 5.62501C3.375 7.34805 4.777 8.75002 6.50001 8.75002C8.22302 8.75002 9.62503 7.34805 9.62503 5.62501C9.62503 3.90197 8.22305 2.5 6.50001 2.5ZM6.50001 8.125C5.12121 8.125 4.00002 7.00349 4.00002 5.62501C4.00002 4.24653 5.12124 3.12502 6.50001 3.12502C7.87879 3.12502 9.00001 4.24653 9.00001 5.62501C9.00001 7.00349 7.87882 8.125 6.50001 8.125Z" fill="white"/>
</svg>
